<?xml version="1.0" encoding="UTF-8"?>
<svg width="39px" height="39px" viewBox="0 0 39 39" version="1.1" xmlns="http://www.w3.org/2000/svg" xmlns:xlink="http://www.w3.org/1999/xlink">
    <!-- Generator: Sketch 42 (36781) - http://www.bohemiancoding.com/sketch -->
    <title>figure-star-green-L</title>
    <desc>Created with Sketch.</desc>
    <defs></defs>
    <g id="Symbols" stroke="none" stroke-width="1" fill="none" fill-rule="evenodd">
        <g id="figure-star-green-L" fill="#24FFB0" fill-rule="nonzero">
            <path d="M19.1,38.8 L17.6,32 C15.9,24 14.9,23 6.8,21.2 L0,19.7 L6.8,18.2 C14.8,16.5 15.8,15.5 17.6,7.4 L19.1,0.6 L20.6,7.4 C22.3,15.4 23.3,16.4 31.4,18.2 L38.2,19.7 L31.4,21.2 C23.4,22.9 22.4,23.9 20.6,32 L19.1,38.8 Z M12.8,19.9 C16.1,21.2 17.8,22.9 19.1,26.2 C20.4,22.9 22.1,21.2 25.4,19.9 C22.1,18.6 20.4,16.9 19.1,13.6 C17.8,16.9 16.1,18.6 12.8,19.9 Z"></path>
        </g>
    </g>
</svg>