<?xml version="1.0" encoding="UTF-8"?>
<svg width="17px" height="17px" viewBox="0 0 17 17" version="1.1" xmlns="http://www.w3.org/2000/svg" xmlns:xlink="http://www.w3.org/1999/xlink">
    <!-- Generator: Sketch 42 (36781) - http://www.bohemiancoding.com/sketch -->
    <title>figure-C-pink-M</title>
    <desc>Created with Sketch.</desc>
    <defs></defs>
    <g id="Symbols" stroke="none" stroke-width="1" fill="none" fill-rule="evenodd">
        <g id="figure-C-pink-M" fill="#FF4F94" fill-rule="nonzero">
            <path d="M8.50774191,17.0077419 C4.00774191,17.0077419 0.207741909,13.4077419 0.00774190863,8.80774191 C-0.192258091,4.10774191 3.50774191,0.207741909 8.20774191,0.00774190863 C12.9077419,-0.192258091 16.8077419,3.50774191 17.0077419,8.20774191 L17.0077419,8.20774191 C17.2077419,12.9077419 13.5077419,16.8077419 8.80774191,17.0077419 L8.50774191,17.0077419 Z M8.50774191,3.00774191 L8.30774191,3.00774191 C5.30774191,3.10774191 2.90774191,5.70774191 3.00774191,8.70774191 C3.10774191,11.7077419 5.70774191,14.1077419 8.70774191,14.0077419 C11.7077419,13.9077419 14.1077419,11.3077419 14.0077419,8.30774191 L14.0077419,8.30774191 C13.9077419,5.30774191 11.4077419,3.00774191 8.50774191,3.00774191 Z"></path>
        </g>
    </g>
</svg>