<?xml version="1.0" encoding="UTF-8"?>
<svg width="25px" height="25px" viewBox="0 0 25 25" version="1.1" xmlns="http://www.w3.org/2000/svg" xmlns:xlink="http://www.w3.org/1999/xlink">
    <!-- Generator: Sketch 42 (36781) - http://www.bohemiancoding.com/sketch -->
    <title>figure-star-green-M</title>
    <desc>Created with Sketch.</desc>
    <defs></defs>
    <g id="Symbols" stroke="none" stroke-width="1" fill="none" fill-rule="evenodd">
        <g id="figure-star-green-M" fill="#24FFB0" fill-rule="nonzero">
            <path d="M12.1,24.8 L10.6,18 C10,15.1 9.8,14.9 6.8,14.2 L0,12.7 L6.8,11.2 C9.7,10.6 9.9,10.4 10.6,7.4 L12.1,0.6 L13.6,7.4 C14.2,10.3 14.4,10.5 17.4,11.2 L24.2,12.7 L17.4,14.2 C14.5,14.8 14.3,15 13.6,18 L12.1,24.8 Z M11.3,12.9 C11.6,13.1 11.8,13.4 12.1,13.7 C12.3,13.4 12.6,13.2 12.9,12.9 C12.6,12.7 12.4,12.4 12.1,12.1 C11.9,12.4 11.6,12.6 11.3,12.9 Z"></path>
        </g>
    </g>
</svg>