<?xml version="1.0" encoding="UTF-8"?>
<svg width="39px" height="39px" viewBox="0 0 39 39" version="1.1" xmlns="http://www.w3.org/2000/svg" xmlns:xlink="http://www.w3.org/1999/xlink">
    <!-- Generator: Sketch 42 (36781) - http://www.bohemiancoding.com/sketch -->
    <title>figure-star-pink-L</title>
    <desc>Created with Sketch.</desc>
    <defs></defs>
    <g id="Symbols" stroke="none" stroke-width="1" fill="none" fill-rule="evenodd">
        <g id="figure-star-pink-L" fill="#FF4F94" fill-rule="nonzero">
            <path d="M19.1,38.2 L17.6,31.4 C15.9,23.4 14.9,22.4 6.8,20.6 L0,19.1 L6.8,17.6 C14.8,15.9 15.8,14.9 17.6,6.8 L19.1,0 L20.6,6.8 C22.3,14.8 23.3,15.8 31.4,17.6 L38.2,19.1 L31.4,20.6 C23.4,22.3 22.4,23.3 20.6,31.4 L19.1,38.2 Z M12.8,19.3 C16.1,20.6 17.8,22.3 19.1,25.6 C20.4,22.3 22.1,20.6 25.4,19.3 C22.1,18 20.4,16.3 19.1,13 C17.8,16.3 16.1,18 12.8,19.3 Z"></path>
        </g>
    </g>
</svg>