<?xml version="1.0" encoding="UTF-8"?>
<svg width="25px" height="25px" viewBox="0 0 25 25" version="1.1" xmlns="http://www.w3.org/2000/svg" xmlns:xlink="http://www.w3.org/1999/xlink">
    <!-- Generator: Sketch 42 (36781) - http://www.bohemiancoding.com/sketch -->
    <title>figure-star-yellow-M</title>
    <desc>Created with Sketch.</desc>
    <defs></defs>
    <g id="Symbols" stroke="none" stroke-width="1" fill="none" fill-rule="evenodd">
        <g id="figure-star-yellow-M" fill="#FFDF3C" fill-rule="nonzero">
            <path d="M12.1,24.2 L10.6,17.4 C10,14.5 9.8,14.3 6.8,13.6 L0,12.1 L6.8,10.6 C9.7,10 9.9,9.8 10.6,6.8 L12.1,0 L13.6,6.8 C14.2,9.7 14.4,9.9 17.4,10.6 L24.2,12.1 L17.4,13.6 C14.5,14.2 14.3,14.4 13.6,17.4 L12.1,24.2 Z M11.3,12.3 C11.6,12.5 11.8,12.8 12.1,13.1 C12.3,12.8 12.6,12.6 12.9,12.3 C12.6,12.1 12.4,11.8 12.1,11.5 C11.9,11.8 11.6,12 11.3,12.3 Z"></path>
        </g>
    </g>
</svg>